<?xml version="1.0" encoding="utf-8"?>
<!-- Generator: Adobe Illustrator 22.0.1, SVG Export Plug-In . SVG Version: 6.00 Build 0)  -->
<svg version="1.1" xmlns="http://www.w3.org/2000/svg" xmlns:xlink="http://www.w3.org/1999/xlink" x="0px" y="0px"
	 viewBox="0 0 100 125" style="enable-background:new 0 0 100 125;" xml:space="preserve">
<style type="text/css">
	.st0{opacity:0.1;fill:#FFE600;}
	.st1{fill:#FFFFFF;}
	.st2{fill:#FFE600;}
	.st3{fill:#718EE0;}
</style>
<g id="Layer_2">
	<circle class="st0" cx="42.9" cy="44.1" r="43.6"/>
	<path class="st1" d="M52.8,109.9L52.8,109.9c-3.7,0-6.7-3-6.7-6.7L44.2,75c4-10.8,4.8-6.8,8.5-6.8h0c3.7,0,6.7,3,6.7,6.7v28.2
		C59.5,106.9,56.5,109.9,52.8,109.9z"/>
	<path class="st1" d="M44.4,62.9L44.4,62.9c-0.9,0.1-1.7-0.6-1.8-1.5L40.7,44c-0.1-0.9,0.6-1.7,1.5-1.8h0c0.9-0.1,1.7,0.6,1.8,1.5
		l1.9,17.5C46,62,45.3,62.8,44.4,62.9z"/>
	<path class="st1" d="M52.4,66.7L52.4,66.7c-1.6,0-2.8-1.3-2.8-2.8v-3.3c0-1.6,1.3-2.8,2.8-2.8h0c1.6,0,2.8,1.3,2.8,2.8v3.3
		C55.2,65.4,54,66.7,52.4,66.7z"/>
	<path class="st1" d="M48.6,73.3L48.6,73.3c-1.3,0.7-3.7,1.8-4.4,0.5l-2.1-6.4c-0.7-1.3-0.3-3,1-3.7l0,0c1.3-0.7,3-0.3,3.7,1
		l2.8,4.9C50.4,70.9,49.9,72.6,48.6,73.3z"/>
	<path class="st1" d="M55.7,73.8h-6c-1.3,0-2.4-1.1-2.4-2.4v0c0-1.3,1.1-2.4,2.4-2.4h6c1.3,0,2.4,1.1,2.4,2.4v0
		C58.2,72.7,57.1,73.8,55.7,73.8z"/>
	<path class="st1" d="M51.9,71.3L51.9,71.3c1.2,0,4.1-1,4.1-2.1v-3.5c0-1.2-3-2.1-4.1-2.1h0c-1.2,0-2.1,1-2.1,2.1v3.5
		C49.8,70.3,50.8,71.3,51.9,71.3z"/>
	<g>
		<image style="overflow:visible;" width="79" height="78" xlink:href="197F16F8408D7CA2.png"  transform="matrix(1 0 0 1 3 3)">
		</image>
	</g>
	<circle class="st2" cx="42.2" cy="41.6" r="2.7"/>
	<circle class="st0" cx="42.5" cy="42.7" r="15"/>
	<circle class="st0" cx="42.6" cy="41.2" r="24.4"/>
	<circle class="st0" cx="42.6" cy="41.4" r="30.1"/>
	<circle class="st0" cx="42.7" cy="42.3" r="34.5"/>
</g>
<g id="Layer_1">
	<g>
		<path class="st3" d="M60.4,114.2c-0.2,0-0.4-0.2-0.5-0.4c-0.4-3.5-0.8-7.8-0.5-8.4c0.1-0.2,0.6-1.6,0.4-4.3
			c-0.1-1.1,0.1-1.7,0.4-2.3c0.3-0.7,0.7-1.6,0.3-4.2l-0.6-4.6c-0.1-0.4-0.4-2.4,0.5-3.3c0.2-0.2,0.5-0.2,0.7,0
			c0.2,0.2,0.2,0.5,0,0.7c-0.4,0.4-0.3,1.7-0.2,2.4l0.6,4.7c0.3,2.8-0.1,3.8-0.4,4.6c-0.2,0.5-0.4,0.9-0.3,1.8
			c0.2,2.2-0.1,3.9-0.4,4.7c-0.1,0.4,0.2,4.4,0.6,7.9C60.9,113.9,60.7,114.2,60.4,114.2C60.5,114.2,60.5,114.2,60.4,114.2z"/>
	</g>
	<g>
		<path class="st3" d="M63.9,82.2c-0.3,0-0.5-0.2-0.5-0.5c0-0.3,0.2-0.5,0.4-0.5c0.1,0,0.8-0.1,1.5-1.6c0.3-0.6,0.3-0.8,0.3-0.9
			c0,0,0,0-0.1,0c-0.2-0.1-0.4-0.2-0.7-0.6c-0.1-0.2-0.3-0.3-0.3-0.3c0,0,0,0,0,0c0,0.8-0.8,1.6-0.8,1.7c-0.2,0.2-0.5,0.2-0.7,0
			c-0.2-0.2-0.2-0.5,0-0.7c0.2-0.2,0.6-0.7,0.6-1c0-0.5,0.2-0.8,0.6-1c0.5-0.1,1,0.1,1.4,0.7c0.1,0.2,0.2,0.2,0.4,0.3
			c0.7,0.4,0.7,1,0.2,2.1C65.3,82.1,64,82.2,63.9,82.2C63.9,82.2,63.9,82.2,63.9,82.2z"/>
	</g>
	<g>
		<path class="st3" d="M61.1,86.1c-0.1,0-0.2,0-0.2-0.1l-2-1.1c-0.2-0.1-0.3-0.4-0.2-0.6c0.1-0.2,0.4-0.3,0.6-0.2l1.6,0.9l1.5-2.6
			c0.1-0.2,0.4-0.3,0.6-0.2c0.2,0.1,0.3,0.4,0.2,0.6l-1.7,3C61.4,86,61.2,86.1,61.1,86.1z"/>
	</g>
	<g>
		<path class="st3" d="M59.8,75.1c-0.1,0-0.2,0-0.3-0.1c0,0-1.1-0.9-1.3-2.4c-0.1-1.3-0.7-1.9-1.5-2.6c-1.1-0.9-1.9-2.4-1.9-3.4
			c0-0.2,0-0.7,0-1.2c0-1,0.1-2.8,0-3.2c-0.1-0.2,0-0.5,0.3-0.6c0.2-0.1,0.5,0,0.6,0.3c0.1,0.3,0.1,1.3,0.1,3.5c0,0.5,0,0.9,0,1.1
			c0,0.7,0.7,1.9,1.6,2.6c1.1,0.9,1.7,1.9,1.8,3.2c0.1,1.1,0.9,1.8,0.9,1.8c0.2,0.2,0.2,0.5,0.1,0.7C60.1,75,59.9,75.1,59.8,75.1z"
			/>
	</g>
	<g>
		<path class="st3" d="M58.1,61.1h-2.8c-0.3,0-0.5-0.2-0.5-0.5c0-0.3,0.2-0.5,0.5-0.5h2.8c0.3,0,0.5,0.2,0.5,0.5
			C58.6,60.9,58.4,61.1,58.1,61.1z"/>
	</g>
	<g>
		<path class="st3" d="M54.8,59.7c-0.2,0-0.4-0.1-0.4-0.3c-0.1-0.2,0-0.5,0.3-0.6l2.9-1.1c0.2-0.1,0.5,0,0.6,0.3
			c0.1,0.2,0,0.5-0.3,0.6L55,59.7C54.9,59.7,54.9,59.7,54.8,59.7z"/>
	</g>
	<g>
		<path class="st3" d="M53.5,58.7c-0.1,0-0.3-0.1-0.3-0.1c-0.2-0.2-0.2-0.5,0-0.7l2.4-2.2c0.2-0.2,0.5-0.2,0.7,0
			c0.2,0.2,0.2,0.5,0,0.7l-2.4,2.2C53.7,58.6,53.6,58.7,53.5,58.7z"/>
	</g>
	<g>
		<path class="st3" d="M51.8,58.1c-0.2,0-0.4-0.2-0.5-0.4L51,54.4c0-0.3,0.2-0.5,0.4-0.5c0.3,0,0.5,0.2,0.5,0.4l0.4,3.3
			C52.3,57.8,52.2,58.1,51.8,58.1C51.9,58.1,51.9,58.1,51.8,58.1z"/>
	</g>
	<g>
		<path class="st3" d="M50.1,58.7c-0.1,0-0.2,0-0.3-0.1l-2.4-2.2c-0.2-0.2-0.2-0.5,0-0.7c0.2-0.2,0.5-0.2,0.7,0l2.4,2.2
			c0.2,0.2,0.2,0.5,0,0.7C50.4,58.6,50.2,58.7,50.1,58.7z"/>
	</g>
	<g>
		<path class="st3" d="M48.8,59.7h-2.6c-0.3,0-0.5-0.2-0.5-0.5c0-0.3,0.2-0.5,0.5-0.5h2.6c0.3,0,0.5,0.2,0.5,0.5
			C49.3,59.5,49.1,59.7,48.8,59.7z"/>
	</g>
	<g>
		<path class="st3" d="M46.9,61.9c-0.2,0-0.4-0.2-0.5-0.4c0-0.3,0.1-0.5,0.4-0.5l1.7-0.3c0.3,0,0.5,0.1,0.5,0.4
			c0,0.3-0.1,0.5-0.4,0.5L46.9,61.9C47,61.9,47,61.9,46.9,61.9z"/>
	</g>
	<g>
		<path class="st3" d="M43.3,64.5c-0.2,0-0.5-0.2-0.5-0.4c0,0-0.2-3.3-0.7-4.6c-0.4-1.1-0.4-3.2-0.5-4.6c0-0.5,0-0.9,0-1.1
			c-0.1-1.2-0.6-3.7-0.9-4.1c-0.6-0.5-0.3-2.1-0.1-3c0.1-0.3,0.3-0.4,0.6-0.4c0.3,0.1,0.4,0.3,0.4,0.6c-0.2,0.9-0.3,1.9-0.1,2.1
			c0.7,0.6,1.2,4.6,1.2,4.7c0,0.2,0,0.6,0,1.1c0,1.2,0.1,3.3,0.4,4.3c0.5,1.4,0.7,4.7,0.7,4.9C43.8,64.2,43.6,64.5,43.3,64.5
			C43.4,64.5,43.4,64.5,43.3,64.5z"/>
	</g>
	<g>
		<path class="st3" d="M45.8,58.2c-0.2,0-0.4-0.1-0.4-0.3c0-0.1-0.8-2.2-1.1-4.7c-0.1-0.6-0.1-1.2-0.2-1.8c-0.2-1.4-0.4-3.4-0.6-3.7
			c-0.2-0.2-0.2-0.4-0.1-0.6c0.2-0.2,0.5-0.2,0.7-0.1c0.4,0.3,0.5,1.2,0.9,4.3c0.1,0.6,0.1,1.2,0.2,1.8c0.3,2.4,1.1,4.4,1.1,4.5
			c0.1,0.2,0,0.5-0.3,0.6C45.9,58.2,45.8,58.2,45.8,58.2z"/>
	</g>
	<g>
		<path class="st3" d="M43.3,114.2C43.3,114.2,43.3,114.2,43.3,114.2c-0.3,0-0.5-0.3-0.5-0.5c0-0.4,0.4-4.2,1.6-5.4
			c0.4-0.4,0-1.6-0.3-2.5c-0.3-0.8-0.5-1.4-0.4-1.9c0-0.2,0-0.8,0-1.4c-0.1-1.7-0.2-4.4,0.7-6.5c0.6-1.4,0.3-2.4-0.1-3.4
			c-0.3-0.9-0.6-1.9-0.4-3.3c0.1-1,0.5-2,0.8-2.9c0.3-0.9,0.7-2.1,0.5-2.4c-0.1-0.1-0.2-0.1-0.3-0.1c-0.6,0-1-0.3-1.3-0.7
			c-0.9-1.2-0.1-3.8,0.6-6.1c0.1-0.4,0.2-0.8,0.3-0.9c0-0.1-0.1-0.4-0.2-0.6c-0.4-0.9-1-2.3-0.4-3.7c0.3-0.8,0-1-0.3-1.2
			c-0.2-0.1-0.4-0.2-0.4-0.5c0-0.1,0-0.2,0.1-0.3c0-0.1,0-0.5-0.2-0.9c-0.2-0.5-0.6-0.8-1-0.9c-0.4-0.1-0.7-0.3-0.9-0.7
			c-0.6-1.1,0.4-3.3,0.5-3.6c0.1-0.2,0.4-0.3,0.6-0.2c0.2,0.1,0.3,0.4,0.2,0.6c-0.4,0.8-0.8,2.2-0.5,2.8c0.1,0.1,0.1,0.2,0.3,0.2
			c1.2,0.2,1.7,1.2,1.9,1.8c0,0.1,0.2,0.5,0.1,0.9c0.9,0.5,1.1,1.3,0.6,2.3c-0.4,1,0.1,2.1,0.4,2.9c0.2,0.4,0.3,0.7,0.3,1
			c0,0.2-0.1,0.4-0.3,1.1c-0.4,1.3-1.4,4.3-0.7,5.3c0.1,0.1,0.2,0.3,0.6,0.3c0.5,0,0.8,0.2,1.1,0.5c0.5,0.7,0.1,1.8-0.4,3.2
			c-0.3,0.9-0.6,1.8-0.7,2.8c-0.2,1.2,0.1,2,0.4,2.9c0.4,1.1,0.7,2.3,0.1,4.1c-0.7,1.9-0.7,4.4-0.6,6.1c0,0.7,0,1.3,0,1.6
			c0,0.3,0.2,0.9,0.4,1.4c0.4,1.2,1,2.6,0.1,3.5c-0.7,0.7-1.1,3.3-1.3,4.8C43.8,114,43.6,114.2,43.3,114.2z"/>
	</g>
	<g>
		<path class="st3" d="M51.9,67c-0.3,0-0.6-0.1-0.9-0.1c-0.7-0.2-1.2-0.5-1.5-1.1c-0.2-0.3-0.3-0.7-0.3-0.9c0-0.1,0-0.2-0.1-0.2
			c-0.1-0.2,0-0.5,0.3-0.6c0.2-0.1,0.5,0,0.6,0.3c0.1,0.1,0.1,0.3,0.1,0.4c0,0.2,0.1,0.4,0.2,0.6c0.2,0.3,0.5,0.6,0.9,0.6
			c0.6,0.1,0.7,0.2,1.7,0c0.3,0,0.5,0.1,0.5,0.4c0,0.3-0.1,0.5-0.4,0.5C52.5,67,52.2,67,51.9,67z"/>
	</g>
	<g>
		<path class="st3" d="M53.2,69.2c-0.5,0-1.1-0.1-2-0.3c-2.8-0.6-4.6-5.4-4.7-5.6c-0.1-0.2,0-0.5,0.3-0.6c0.2-0.1,0.5,0,0.6,0.3
			c0.5,1.2,2,4.6,4,5c2,0.4,2.5,0.1,2.5,0.1c0.2-0.2,0.4-0.2,0.6-0.1c0.2,0.2,0.2,0.5,0.1,0.7C54.4,69,54.1,69.2,53.2,69.2z"/>
	</g>
	<g>
		<path class="st3" d="M53.8,61.6c0,0-0.1,0-0.1,0c-0.5-0.1-0.9-0.5-1.2-0.9c-0.1-0.1-0.3-0.3-0.4-0.4c0,0,0,0-0.1,0.1
			c-0.7,0.8-1.7,1.2-1.7,1.2c-0.3,0.1-0.5-0.1-0.6-0.3c-0.1-0.2,0.1-0.5,0.3-0.6c0,0,0.8-0.3,1.3-0.8c0.2-0.3,0.5-0.4,0.7-0.4
			c0.5,0,0.8,0.3,1.1,0.7c0.2,0.3,0.5,0.5,0.8,0.6c0.3,0.1,0.4,0.3,0.3,0.6C54.2,61.5,54,61.6,53.8,61.6z"/>
	</g>
	<g>
		<path class="st3" d="M43.8,45.9C43.8,45.9,43.7,45.9,43.8,45.9c-0.3,0-0.5-0.2-0.5-0.5c0-0.3,0.2-0.5,0.5-0.5
			c0.3,0,0.6-0.2,0.7-0.3c-0.1,0-0.4-0.2-1.5-0.2c-2.1,0-2.6,0.3-2.7,0.4c-0.1,0.2-0.2,0.3-0.4,0.3c-0.3,0-0.5-0.2-0.5-0.5
			c0-0.5,0.6-1.2,3.7-1.2c1.3,0,2.1,0.2,2.3,0.7c0.2,0.3,0.1,0.6,0,0.9C45,45.6,44.4,45.9,43.8,45.9z"/>
	</g>
	<g>
		<path class="st3" d="M39.6,43.5c-0.2,0-0.4-0.1-0.4-0.3c-0.1-0.2,0-0.5,0.3-0.6c0.1-0.1,3.4-1.3,5.7-0.1c0.2,0.1,0.3,0.4,0.2,0.6
			c-0.1,0.2-0.4,0.3-0.6,0.2c-2-1-4.9,0.1-5,0.1C39.7,43.5,39.6,43.5,39.6,43.5z"/>
	</g>
	<g>
		<path class="st3" d="M41.2,41.8c-0.1,0-0.1,0-0.2,0c-0.2-0.1-0.3-0.3-0.3-0.5c-0.3-0.5-0.4-1.1,0.7-1.8c0.9-0.6,0.9-1,0.9-1
			c0-0.2,0.1-0.4,0.3-0.4c0.2-0.1,0.4,0,0.5,0.1c0.3,0.3,1.5,1.6,1.4,2.6c0,0.4-0.2,0.7-0.5,0.9c-0.2,0.1-0.5,0.1-0.7-0.1
			c-0.2-0.2-0.1-0.5,0.1-0.7c0.1,0,0.1-0.1,0.1-0.2c0-0.3-0.3-0.9-0.7-1.4c-0.2,0.3-0.5,0.6-1,0.9c-0.5,0.3-0.4,0.4-0.4,0.6
			c0.1,0.1,0.2,0.4,0.1,0.6C41.5,41.6,41.3,41.8,41.2,41.8z"/>
	</g>
	<g>
		<path class="st3" d="M58.6,79.4c-0.1,0-0.2,0-0.2-0.1c-0.2-0.1-0.3-0.4-0.2-0.6l3.5-5.8c0.1-0.2,0.4-0.3,0.6-0.2l4.9,2.9
			c0.1,0.1,0.2,0.2,0.2,0.3c0,0.1,0,0.3-0.1,0.4l-0.6,0.9c-0.1,0.2-0.4,0.3-0.7,0.1c-0.2-0.1-0.3-0.4-0.1-0.7l0.3-0.5l-4.1-2.4
			L59,79.2C58.9,79.3,58.7,79.4,58.6,79.4z"/>
	</g>
	<g>
		<path class="st3" d="M64.1,116.7H39.7c-0.3,0-0.5-0.2-0.5-0.5s0.2-0.5,0.5-0.5h24.3c0.3,0,0.5,0.2,0.5,0.5S64.3,116.7,64.1,116.7z
			"/>
	</g>
	<g>
		<path class="st3" d="M64.1,118.7H39.7c-0.3,0-0.5-0.2-0.5-0.5s0.2-0.5,0.5-0.5h24.3c0.3,0,0.5,0.2,0.5,0.5S64.3,118.7,64.1,118.7z
			"/>
	</g>
	<g>
		<path class="st3" d="M46.9,83.1c-0.2,0-0.3-0.1-0.4-0.2c-0.1-0.2-0.1-0.5,0.2-0.6c0,0,4.3-2.7,5.8-6.1c0.1-0.2,0.4-0.4,0.6-0.3
			c0.2,0.1,0.4,0.4,0.3,0.6c-1.6,3.8-6,6.5-6.2,6.6C47.1,83,47,83.1,46.9,83.1z"/>
	</g>
	<g>
		<path class="st3" d="M46.8,94.1c-0.1,0-0.2,0-0.3-0.1c-0.2-0.2-0.2-0.5,0-0.7c0.1-0.1,5.1-5.2,6.6-10.1c0.1-0.2,0.3-0.4,0.6-0.3
			c0.2,0.1,0.4,0.3,0.3,0.6c-1.6,5.2-6.6,10.3-6.8,10.5C47,94.1,46.9,94.1,46.8,94.1z"/>
	</g>
</g>
</svg>
